<?xml version="1.0" encoding="iso-8859-1"?>
<!-- Generator: Adobe Illustrator 18.1.1, SVG Export Plug-In . SVG Version: 6.00 Build 0)  -->
<svg xmlns="http://www.w3.org/2000/svg" xmlns:xlink="http://www.w3.org/1999/xlink" version="1.1" id="Capa_1" x="0px" y="0px" viewBox="0 0 45.894 45.894" style="enable-background:new 0 0 45.894 45.894;" xml:space="preserve" width="32px" height="32px">
<g>
	<path d="M2.512,43.883c1.387,1.307,3.953,0.834,5.732-1.054l9.364-9.94c2.963,2.262,6.653,3.62,10.668,3.62   c9.73,0,17.618-7.888,17.618-17.619c0-9.729-7.888-17.618-17.618-17.618c-9.731,0-17.619,7.888-17.619,17.618   c0,3.552,1.06,6.852,2.868,9.618c-0.988,0.219-2.009,0.785-2.853,1.681L0,41.517L2.512,43.883z M28.276,5.971   c7.136,0,12.92,5.784,12.92,12.919c0,7.136-5.784,12.92-12.92,12.92c-7.135,0-12.92-5.784-12.92-12.92   C15.356,11.755,21.141,5.971,28.276,5.971z" fill="#006DF0"/>
</g>
<g>
</g>
<g>
</g>
<g>
</g>
<g>
</g>
<g>
</g>
<g>
</g>
<g>
</g>
<g>
</g>
<g>
</g>
<g>
</g>
<g>
</g>
<g>
</g>
<g>
</g>
<g>
</g>
<g>
</g>
</svg>
